<svg viewBox="0 0 48 48" fill="currentColor" xmlns="http://www.w3.org/2000/svg">
<path d="M37.4999 22.7001C36.9695 22.6954 36.4406 22.6418 35.9199 22.5401C35.4194 22.435 34.9303 22.2809 34.4599 22.0801L34.1199 22.0001H33.8799C33.6799 22.0001 33.5799 22.1401 33.5799 22.4201V23.0801C33.5516 23.2052 33.5516 23.335 33.5799 23.4601C33.6804 23.6246 33.8262 23.7566 33.9999 23.8401C34.481 24.0808 34.9922 24.2557 35.5199 24.3601C36.1752 24.5167 36.8463 24.5973 37.5199 24.6001C38.1976 24.6204 38.8739 24.5258 39.5199 24.3201C40.0537 24.1801 40.5514 23.9278 40.9799 23.5801C41.3849 23.2671 41.719 22.8717 41.9599 22.4201C42.1893 21.9323 42.3055 21.3991 42.2999 20.8601C42.3072 20.1914 42.0966 19.5385 41.6999 19.0001C41.1666 18.3942 40.4735 17.9506 39.6999 17.7201L37.7999 17.1201C37.2691 16.9827 36.7721 16.7376 36.3399 16.4001C36.2132 16.2786 36.1125 16.1326 36.0437 15.971C35.975 15.8095 35.9397 15.6357 35.9399 15.4601C35.9256 15.2228 35.9757 14.986 36.0848 14.7748C36.194 14.5636 36.3581 14.3857 36.5599 14.2601C37.1133 13.9916 37.7257 13.8678 38.3399 13.9001C39.2151 13.8789 40.0836 14.0567 40.8799 14.4201C41.0427 14.5031 41.2187 14.5572 41.3999 14.5801C41.5999 14.5801 41.6999 14.4201 41.6999 14.1401V13.4201C41.7059 13.2646 41.664 13.111 41.5799 12.9801C41.4731 12.844 41.3362 12.7344 41.1799 12.6601C41.0016 12.5619 40.814 12.4815 40.6199 12.4201C40.371 12.3323 40.1173 12.2588 39.8599 12.2001L38.9799 12.0001C38.6537 11.9765 38.3262 11.9765 37.9999 12.0001C37.4387 11.9904 36.8792 12.0646 36.3399 12.2201C35.835 12.3675 35.3608 12.6046 34.9399 12.9201C34.5495 13.205 34.2282 13.5741 33.9999 14.0001C33.7546 14.4542 33.6306 14.964 33.6399 15.4801C33.628 16.2021 33.8606 16.907 34.2999 17.4801C34.8491 18.1416 35.5897 18.6167 36.4199 18.8401L38.4199 19.4401C38.9148 19.5557 39.3744 19.789 39.7599 20.1201C39.9994 20.3736 40.1288 20.7115 40.1199 21.0601C40.1243 21.3131 40.0618 21.5628 39.9389 21.784C39.816 22.0052 39.637 22.1901 39.4199 22.3201C38.8263 22.6187 38.1626 22.7501 37.4999 22.7001V22.7001ZM25.8799 13.0001C25.8491 12.8041 25.7583 12.6224 25.6199 12.4801C25.4703 12.3698 25.2847 12.3198 25.0999 12.3401H23.9999C23.8161 12.3299 23.6338 12.379 23.4799 12.4801C23.3341 12.617 23.2419 12.8013 23.2199 13.0001L21.2199 21.8001L18.9399 13.0001C18.9036 12.8017 18.8056 12.6197 18.6599 12.4801C18.6599 12.4801 18.3999 12.3401 18.1399 12.3401H16.8399C16.6199 12.3401 16.5199 12.4601 16.5199 12.6801C16.5393 12.8641 16.5796 13.0452 16.6399 13.2201L19.7599 23.5001C19.8005 23.683 19.8826 23.8541 19.9999 24.0001C20.1572 24.0918 20.3385 24.1336 20.5199 24.1201H21.6599C21.8477 24.1328 22.0352 24.0911 22.1999 24.0001C22.326 23.8443 22.4088 23.6581 22.4399 23.4601L24.4399 14.9001L26.4399 23.4801C26.4566 23.6762 26.5415 23.8602 26.6799 24.0001C26.8373 24.11 27.029 24.1597 27.2199 24.1401H28.3599C28.5374 24.1488 28.7128 24.0997 28.8599 24.0001C29.0104 23.8642 29.1093 23.6805 29.1399 23.4801L32.3599 13.2001C32.3717 13.0938 32.3717 12.9864 32.3599 12.8801C32.3677 12.807 32.3677 12.7332 32.3599 12.6601C32.3666 12.6139 32.3625 12.5668 32.3478 12.5224C32.333 12.4781 32.3082 12.4379 32.2752 12.4049C32.2422 12.3718 32.2019 12.347 32.1576 12.3323C32.1133 12.3176 32.0661 12.3134 32.0199 12.3201H30.7799C30.5964 12.3126 30.4149 12.3615 30.2599 12.4601C30.1368 12.6127 30.0481 12.7901 29.9999 12.9801L27.9999 22.0001L25.8799 13.0001ZM11.5399 17.2601C11.069 17.1983 10.5948 17.1649 10.1199 17.1601C8.94288 17.0983 7.78372 17.4681 6.85994 18.2001C6.46655 18.537 6.15431 18.9584 5.94653 19.4328C5.73875 19.9073 5.64078 20.4225 5.65993 20.9401C5.63667 21.4115 5.71179 21.8825 5.88051 22.3232C6.04923 22.764 6.30786 23.1648 6.63994 23.5001C6.99685 23.8295 7.41606 24.0841 7.8729 24.249C8.32973 24.4139 8.81493 24.4856 9.29994 24.4601C10.0633 24.482 10.8215 24.3274 11.5153 24.0083C12.2091 23.6891 12.8199 23.214 13.2999 22.6201C13.4168 22.8882 13.5504 23.1487 13.6999 23.4001C13.8423 23.6198 14.0029 23.8272 14.1799 24.0201C14.2283 24.0691 14.2859 24.108 14.3494 24.1345C14.4129 24.1611 14.4811 24.1747 14.5499 24.1747C14.6188 24.1747 14.6869 24.1611 14.7504 24.1345C14.814 24.108 14.8716 24.0691 14.9199 24.0201L15.7599 23.4601C15.8301 23.4167 15.8897 23.3583 15.9347 23.2892C15.9796 23.22 16.0087 23.1418 16.0199 23.0601C16.0523 22.9559 16.0523 22.8443 16.0199 22.7401C15.8579 22.4371 15.7175 22.123 15.5999 21.8001C15.4928 21.4095 15.4456 21.0049 15.4599 20.6001V16.3801C15.5077 15.7874 15.4349 15.1912 15.2458 14.6275C15.0568 14.0637 14.7554 13.5441 14.3599 13.1001C13.8517 12.6727 13.2609 12.3545 12.6243 12.1653C11.9878 11.976 11.3191 11.9198 10.6599 12.0001C9.98483 11.9999 9.31254 12.0872 8.65993 12.2601C8.07883 12.3952 7.51515 12.5965 6.97994 12.8601C6.83877 12.9225 6.71513 13.0186 6.61994 13.1401C6.57107 13.2895 6.57107 13.4507 6.61994 13.6001V14.2601C6.61994 14.5401 6.61994 14.6601 6.89994 14.6601C6.97243 14.6758 7.04744 14.6758 7.11994 14.6601L7.57994 14.5001C7.98619 14.3007 8.40749 14.1335 8.83994 14.0001C9.31088 13.8821 9.79442 13.8216 10.2799 13.8201C11.0531 13.7391 11.8275 13.9614 12.4399 14.4401C12.9162 15.0383 13.1388 15.7995 13.0599 16.5601V17.5401L11.5399 17.2601ZM13.0999 19.0601V19.6001C13.1015 19.9911 13.0545 20.3807 12.9599 20.7601C12.8755 21.0786 12.718 21.3731 12.4999 21.6201C12.1665 22.0121 11.73 22.3031 11.2399 22.4601C10.8028 22.6139 10.3433 22.695 9.87994 22.7001C9.62624 22.719 9.37136 22.6862 9.13071 22.6037C8.89007 22.5212 8.66868 22.3907 8.47993 22.2201C8.30476 22.0303 8.17148 21.8058 8.08878 21.5612C8.00608 21.3165 7.97581 21.0572 7.99994 20.8001C7.98341 20.5128 8.03451 20.2256 8.14914 19.9616C8.26376 19.6976 8.43871 19.4642 8.65993 19.2801C9.24282 18.8715 9.95061 18.6804 10.6599 18.7401H11.8999C12.3055 18.8248 12.7061 18.9316 13.0999 19.0601V19.0601ZM39.5199 30.0001C34.7387 32.0117 29.607 33.0585 24.4199 33.0801C17.477 33.0814 10.6533 31.2755 4.61993 27.8401C4.13993 27.5401 3.75993 28.0401 4.17993 28.4201C9.61055 33.3294 16.6793 36.0328 23.9999 36.0001C29.773 36.0143 35.4171 34.2932 40.1999 31.0601C40.8799 30.4401 40.2599 29.6201 39.5199 30.0001Z" fill="currentColor"/>
<path d="M36.7598 28.1201C36.3798 28.4001 36.4398 28.7801 36.8598 28.7201C38.2798 28.5401 41.4198 28.1801 41.9798 28.9001C42.5398 29.6201 41.3598 32.5601 40.8198 33.8801C40.6598 34.2801 41.0198 34.4401 41.3798 34.1401C42.2905 33.3017 42.9886 32.2587 43.4163 31.0971C43.8441 29.9356 43.9892 28.6889 43.8398 27.4601C42.6906 27.0075 41.451 26.8315 40.2211 26.9461C38.9913 27.0608 37.8056 27.4629 36.7598 28.1201V28.1201Z" fill="currentColor"/>
</svg>
