<svg viewBox="0 0 48 48" fill="currentColor" xmlns="http://www.w3.org/2000/svg">
<path d="M36.0041 5.9939H11.9981C10.4069 5.99865 8.88221 6.63301 7.75721 7.75838C6.63222 8.88375 5.99836 10.4087 5.99414 11.9999V36.0039C5.99994 37.5943 6.63443 39.1179 7.7592 40.2423C8.88397 41.3666 10.4077 42.0006 11.9981 42.0059H36.0041C37.5942 42.0001 39.1175 41.3659 40.2418 40.2415C41.3661 39.1172 42.0003 37.5939 42.0061 36.0039V11.9999C42.0014 10.4092 41.3677 8.88487 40.2432 7.75966C39.1187 6.63446 37.5949 5.9997 36.0041 5.9939V5.9939ZM32.7241 31.2879C32.4201 32.0079 31.9461 32.6479 31.3381 33.1419C30.6192 33.7003 29.8006 34.117 28.9261 34.3699C27.9461 34.6719 26.7781 34.8279 25.4261 34.8279H15.7761V13.8179H25.9821C27.8681 13.8179 29.3821 14.2439 30.5161 15.1099C31.6541 15.9819 32.2241 17.2739 32.2241 19.0259C32.2241 20.0819 31.9641 20.9919 31.4461 21.7399C30.9281 22.4859 30.1861 23.0679 29.2241 23.4759V23.5439C30.5081 23.8139 31.4981 24.4199 32.1521 25.3679C32.8061 26.3139 33.1381 27.5059 33.1381 28.9459C33.1381 29.7559 32.9821 30.5219 32.6881 31.2399L32.7281 31.2819V31.2879H32.7241ZM28.5561 26.1099C27.9381 25.5459 27.0781 25.2719 25.9621 25.2719H19.4741V31.8239H25.9801C27.0881 31.8239 27.9621 31.5359 28.5761 30.9539C29.1921 30.3759 29.5041 29.5519 29.5041 28.4959C29.4941 27.4599 29.1921 26.6579 28.5761 26.1099H28.5481H28.5561V26.1099ZM27.6541 21.8719C28.2521 21.3699 28.5421 20.6459 28.5421 19.7039C28.5421 18.6519 28.2801 17.8999 27.7481 17.4719C27.2201 17.0439 26.4561 16.8199 25.4561 16.8199H19.4541V22.6159H25.4561C26.3281 22.6179 27.0761 22.3619 27.6541 21.8719V21.8719Z" fill="currentColor"/>
</svg>
