<svg viewBox="0 0 49 48" fill="currentColor" xmlns="http://www.w3.org/2000/svg">
<path d="M22.75 6V16.3164C22.056 16.0344 20.5583 16 19.8203 16C14.2683 16 9.12891 18.612 9.12891 26C9.12891 34.84 16.09 36 20.75 36C22.59 36 26.75 35.8183 28.75 35.2383V6H22.75ZM32.75 6V12H38.75V6H32.75ZM32.75 16V33.4023C32.75 36.4343 30.906 39.5903 26.75 41.4023L32.4688 43.9922C38.2807 41.9922 38.75 35.4023 38.75 33.4023V16H32.75ZM20.6914 21.1016C21.3314 21.1016 22.05 21.2189 22.75 21.3789V30.7852C22.05 30.9452 21.3314 31.0664 20.6914 31.0664C18.0714 31.0664 15.5312 30.24 15.5312 26C15.5312 21.76 18.0714 21.1016 20.6914 21.1016Z" fill="currentColor"/>
</svg>
