<svg viewBox="0 0 48 48" fill="currentColor" xmlns="http://www.w3.org/2000/svg">
<path d="M40.3401 19.6399C39.7771 19.6368 39.2149 19.6837 38.6601 19.7799C38.5153 18.9041 38.1852 18.0693 37.692 17.3313C37.1988 16.5932 36.5538 15.9689 35.8001 15.4999L35.2401 15.1799L34.8601 15.7199C34.3829 16.4472 34.0376 17.2528 33.8401 18.0999C33.6427 18.846 33.5994 19.6245 33.7129 20.3879C33.8264 21.1513 34.0942 21.8835 34.5001 22.5399C33.5842 22.9482 32.6014 23.1854 31.6001 23.2399H5.26011C4.92938 23.2399 4.61188 23.3699 4.37616 23.6019C4.14043 23.8339 4.00536 24.1492 4.00011 24.4799C3.9755 26.7913 4.36847 29.0882 5.16011 31.2599C5.87076 33.3938 7.27996 35.2257 9.16011 36.4599C11.8929 37.847 14.9387 38.5017 18.0001 38.3599C19.6211 38.388 21.2412 38.2675 22.8401 37.9999C25.0813 37.5987 27.2384 36.821 29.2201 35.6999C30.8562 34.7079 32.3217 33.4585 33.5601 31.9999C35.407 29.8272 36.8497 27.3413 37.8201 24.6599H38.2001C39.0178 24.6902 39.8334 24.5572 40.5992 24.2687C41.3649 23.9803 42.0656 23.5422 42.6601 22.9799C43.1793 22.496 43.5826 21.9013 43.8401 21.2399L44.0001 20.7999L43.6001 20.4799C42.6313 19.8584 41.4887 19.564 40.3401 19.6399V19.6399Z" fill="currentColor"/>
<path d="M11.2199 18.6999H7.69988C7.61837 18.6997 7.53986 18.7307 7.4804 18.7864C7.42093 18.8422 7.38498 18.9185 7.37988 18.9999V22.1599C7.38498 22.2412 7.42093 22.3176 7.4804 22.3733C7.53986 22.4291 7.61837 22.46 7.69988 22.4599H11.2199C11.3014 22.46 11.3799 22.4291 11.4394 22.3733C11.4988 22.3176 11.5348 22.2412 11.5399 22.1599V18.9999C11.5348 18.9185 11.4988 18.8422 11.4394 18.7864C11.3799 18.7307 11.3014 18.6997 11.2199 18.6999V18.6999ZM16.0999 18.6999H12.5599C12.4784 18.6997 12.3999 18.7307 12.3404 18.7864C12.2809 18.8422 12.245 18.9185 12.2399 18.9999V22.1599C12.245 22.2412 12.2809 22.3176 12.3404 22.3733C12.3999 22.4291 12.4784 22.46 12.5599 22.4599H16.0999C16.1794 22.4599 16.2558 22.4283 16.312 22.372C16.3683 22.3157 16.3999 22.2394 16.3999 22.1599V18.9999C16.3999 18.9203 16.3683 18.844 16.312 18.7877C16.2558 18.7315 16.1794 18.6999 16.0999 18.6999V18.6999ZM21.0399 18.6999H17.4999C17.4203 18.6999 17.344 18.7315 17.2878 18.7877C17.2315 18.844 17.1999 18.9203 17.1999 18.9999V22.1599C17.1999 22.2394 17.2315 22.3157 17.2878 22.372C17.344 22.4283 17.4203 22.4599 17.4999 22.4599H21.0399C21.1194 22.4599 21.1958 22.4283 21.252 22.372C21.3083 22.3157 21.3399 22.2394 21.3399 22.1599V18.9999C21.3399 18.9203 21.3083 18.844 21.252 18.7877C21.1958 18.7315 21.1194 18.6999 21.0399 18.6999V18.6999ZM22.3799 18.6999C22.3344 18.6873 22.2867 18.6855 22.2404 18.6949C22.1942 18.7042 22.1508 18.7243 22.1138 18.7535C22.0768 18.7827 22.0472 18.8202 22.0274 18.8631C22.0076 18.9059 21.9982 18.9527 21.9999 18.9999V22.1599C21.9999 22.1993 22.0076 22.2383 22.0227 22.2747C22.0378 22.3111 22.0599 22.3441 22.0877 22.372C22.1156 22.3999 22.1487 22.422 22.1851 22.437C22.2215 22.4521 22.2605 22.4599 22.2999 22.4599H25.9999C26.0794 22.4599 26.1558 22.4283 26.212 22.372C26.2683 22.3157 26.2999 22.2394 26.2999 22.1599V18.9999C26.2999 18.9203 26.2683 18.844 26.212 18.7877C26.1558 18.7315 26.0794 18.6999 25.9999 18.6999H22.3799ZM12.5599 14.1799H15.9999C16.0848 14.1799 16.1661 14.2136 16.2262 14.2736C16.2862 14.3336 16.3199 14.415 16.3199 14.4999V17.6199C16.3288 17.6666 16.3272 17.7148 16.3152 17.7608C16.3031 17.8069 16.281 17.8496 16.2503 17.886C16.2197 17.9224 16.1813 17.9515 16.138 17.9712C16.0946 17.9909 16.0475 18.0007 15.9999 17.9999H12.5599C12.4803 17.9999 12.404 17.9683 12.3478 17.912C12.2915 17.8557 12.2599 17.7794 12.2599 17.6999V14.4799C12.2599 14.4405 12.2676 14.4015 12.2827 14.3651C12.2978 14.3287 12.3199 14.2956 12.3478 14.2677C12.3756 14.2399 12.4087 14.2178 12.4451 14.2027C12.4815 14.1876 12.5205 14.1799 12.5599 14.1799V14.1799ZM17.4999 14.1799H21.0399C21.0793 14.1799 21.1183 14.1876 21.1547 14.2027C21.1911 14.2178 21.2242 14.2399 21.252 14.2677C21.2799 14.2956 21.302 14.3287 21.317 14.3651C21.3321 14.4015 21.3399 14.4405 21.3399 14.4799V17.6199C21.3399 17.7047 21.3062 17.7861 21.2462 17.8461C21.1861 17.9061 21.1048 17.9399 21.0199 17.9399H17.4999C17.4203 17.9399 17.344 17.9083 17.2878 17.852C17.2315 17.7957 17.1999 17.7194 17.1999 17.6399V14.4799C17.1999 14.4405 17.2076 14.4015 17.2227 14.3651C17.2378 14.3287 17.2599 14.2956 17.2878 14.2677C17.3156 14.2399 17.3487 14.2178 17.3851 14.2027C17.4215 14.1876 17.4605 14.1799 17.4999 14.1799V14.1799ZM22.3799 14.1799H25.9999C26.0393 14.1799 26.0783 14.1876 26.1147 14.2027C26.1511 14.2178 26.1842 14.2399 26.212 14.2677C26.2399 14.2956 26.262 14.3287 26.277 14.3651C26.2921 14.4015 26.2999 14.4405 26.2999 14.4799V17.6199C26.3125 17.6653 26.3142 17.7131 26.3049 17.7593C26.2956 17.8056 26.2755 17.8489 26.2463 17.886C26.217 17.923 26.1795 17.9526 26.1367 17.9724C26.0939 17.9922 26.047 18.0016 25.9999 17.9999H22.3799C22.3276 18.0111 22.2734 18.009 22.2222 17.9939C22.1709 17.9788 22.1243 17.951 22.0865 17.9133C22.0487 17.8755 22.021 17.8288 22.0059 17.7776C21.9907 17.7263 21.9887 17.6721 21.9999 17.6199V14.4799C21.9982 14.4327 22.0076 14.3859 22.0274 14.3431C22.0472 14.3002 22.0768 14.2627 22.1138 14.2335C22.1508 14.2043 22.1942 14.1842 22.2404 14.1749C22.2867 14.1655 22.3344 14.1673 22.3799 14.1799V14.1799Z" fill="currentColor"/>
<path d="M25.9201 9.63989H22.3801C22.2144 9.63989 22.0801 9.77421 22.0801 9.93989V13.0999C22.0801 13.2656 22.2144 13.3999 22.3801 13.3999H25.9201C26.0858 13.3999 26.2201 13.2656 26.2201 13.0999V9.93989C26.2201 9.77421 26.0858 9.63989 25.9201 9.63989Z" fill="currentColor"/>
<path d="M27.3 18.7C27.2204 18.7 27.1441 18.7316 27.0879 18.7878C27.0316 18.8441 27 18.9204 27 19V22.16C27 22.2395 27.0316 22.3158 27.0879 22.3721C27.1441 22.4283 27.2204 22.4599 27.3 22.4599H30.84C30.8794 22.4599 30.9184 22.4522 30.9548 22.4371C30.9912 22.422 31.0243 22.3999 31.0521 22.3721C31.08 22.3442 31.1021 22.3112 31.1172 22.2748C31.1322 22.2384 31.14 22.1993 31.14 22.16V19C31.14 18.9606 31.1322 18.9215 31.1172 18.8851C31.1021 18.8487 31.08 18.8157 31.0521 18.7878C31.0243 18.76 30.9912 18.7379 30.9548 18.7228C30.9184 18.7077 30.8794 18.7 30.84 18.7H27.3Z" fill="currentColor"/>
</svg>
