<svg viewBox="0 0 81 32" fill="currentColor" xmlns="http://www.w3.org/2000/svg">
<g clip-path="url(#clip0_458_565)">
<path d="M6.51622 1.54585C5.85649 1.60125 5.28055 2.13167 6.10352 3.01977C7.68431 3.91264 4.5445 4.56968 5.4612 5.16704C5.75353 5.79618 5.43779 6.49713 4.58305 6.60993C3.33113 6.71797 3.44979 8.42757 4.66994 7.53152C6.03148 7.09939 4.90529 7.70238 4.26344 7.82631C2.82246 8.24573 1.84055 9.6852 2.67781 11.0007C3.47853 12.8118 3.6919 14.8321 4.31309 16.7164C5.341 19.6142 6.84285 22.3716 8.79381 24.7531C9.72004 26.1036 11.0742 27.0631 12.3467 28.064C13.5987 28.8759 14.9928 29.688 16.4179 30.1027C18.9487 31.0289 21.6648 31.1156 24.3243 31.3253C25.9448 31.3221 27.5713 31.2079 29.1712 30.9219C30.6106 31.0776 31.6463 29.847 32.9475 30.4968C33.7355 29.7977 34.8839 30.1022 35.6719 29.5938C36.255 27.6111 33.6695 29.2007 32.8513 28.2316C31.9616 29.277 31.2149 28.1169 30.1362 28.4426C28.2996 28.5347 30.2754 27.6198 30.2293 26.7794C29.2554 26.0327 28.1556 27.8046 27.5328 28.2812C25.9949 28.0032 24.4722 27.5661 23.0614 26.9004C21.4536 26.0631 19.8755 25.0671 18.711 23.6547C17.4924 22.2121 16.1454 20.7533 15.5894 18.9009C14.4137 15.8426 14.4902 12.5313 14.1899 9.31884C14.3011 7.14387 16.5978 9.55293 17.5908 8.76651C17.2508 7.63851 15.4391 7.28144 14.4382 6.83024C13.4722 6.76352 13.1202 5.89788 12.0923 5.82798C12.1415 4.62054 10.2036 5.28493 9.49819 4.42542C10.1925 2.63333 7.19806 4.46797 7.4316 2.91737C7.91934 1.90932 7.17594 1.49044 6.51622 1.54585ZM6.52553 1.69789C6.68211 1.65882 6.86221 1.69025 7.04372 1.83443C7.90482 2.9942 5.45993 1.70142 6.30832 2.80877C5.79237 2.56688 6.05576 1.81511 6.52553 1.69789ZM68.9608 2.27195C68.8544 2.27195 68.5758 2.41707 68.1261 2.71257C67.5701 3.07163 66.9831 3.35474 66.3698 3.55969C65.9854 3.69155 65.7958 3.8753 65.7958 4.11202C65.7958 4.27566 65.9291 4.40313 66.1992 4.49369C66.7727 4.68275 67.1491 4.94353 67.3287 5.27875C67.4605 5.54089 67.5273 6.00616 67.5273 6.6782V17.4115C67.5273 18.352 67.3004 18.8796 66.8508 18.994C66.3504 19.1243 66.0999 19.3169 66.0999 19.5711C66.0999 19.6776 66.1088 19.7622 66.1247 19.8194C66.1644 19.983 66.4313 20.0438 66.9222 20.0024C68.8716 19.8468 70.2558 19.8084 71.074 19.8814C71.3361 19.9069 71.4961 19.8949 71.558 19.8504C71.62 19.8059 71.6511 19.6888 71.6511 19.4998C71.6511 19.2615 71.4585 19.1177 71.074 19.0684C70.4512 19.0033 70.054 18.9129 69.8824 18.7985C69.6378 18.6348 69.5042 18.2926 69.4884 17.7683C69.4725 17.244 69.4666 16.8424 69.4666 16.5643C69.4666 16.1719 69.6593 15.868 70.0438 15.6552C70.387 15.4089 70.627 15.2859 70.7668 15.2859C70.8812 15.2859 70.9761 15.3542 71.0492 15.4845C71.95 17.0081 73.0482 18.4649 74.3414 19.8566C74.5368 20.0616 74.8659 20.1178 75.3251 20.0273C76.2513 19.9542 76.9981 19.9142 77.5716 19.9063C77.9561 19.8904 78.1488 19.7361 78.1488 19.4501C78.1488 19.2213 78.1028 19.0805 78.0123 19.0281C77.9217 18.9757 77.6906 18.9474 77.3141 18.9474C76.8073 18.9474 76.2603 18.6985 75.6788 18.1996C74.7701 17.4068 73.8038 16.23 72.7806 14.6746C72.5026 14.2409 72.3648 13.9667 72.3648 13.8523C72.3648 13.7792 72.3959 13.7185 72.461 13.6692C73.3444 12.7859 74.1773 12.1663 74.9558 11.8137C75.5135 11.5515 76.1062 11.4062 76.7369 11.3823C77.1389 11.3585 77.3389 11.2073 77.3389 10.9293C77.3389 10.6338 77.2115 10.4811 76.9573 10.4732C76.1804 10.4732 75.3978 10.4687 74.6114 10.4607C73.4818 10.4528 72.6222 10.4099 72.0328 10.3273C71.7707 10.286 71.6253 10.4106 71.6015 10.6966C71.5856 10.9825 71.722 11.1411 72.008 11.1744C72.6705 11.265 73.0009 11.419 73.0009 11.6399C73.0009 11.7622 72.9032 11.9283 72.7062 12.1333C71.7148 12.9928 70.882 13.6862 70.202 14.2185C69.9478 14.4314 69.7596 14.5381 69.6373 14.5381C69.5229 14.5381 69.4635 14.4314 69.4635 14.2185L69.4418 6.53236C69.4418 5.5251 69.4463 4.7218 69.4542 4.12443C69.4622 3.25699 69.4666 2.85087 69.4666 2.90806C69.4666 2.48228 69.2961 2.27195 68.9608 2.27195ZM40.9253 2.35883C40.795 2.35883 40.4822 2.50395 39.9913 2.79946C39.3939 3.17599 38.8159 3.45464 38.2598 3.63416C37.8912 3.75649 37.7075 3.94334 37.7075 4.1896C37.7075 4.35324 37.835 4.4776 38.0892 4.56816C38.5721 4.73975 38.9085 4.98287 39.1007 5.29426C39.293 5.60565 39.3924 6.09327 39.3924 6.75577V17.8676C39.3924 18.538 39.1686 18.9427 38.7222 19.0778C38.2757 19.2128 38.055 19.3772 38.055 19.5742C38.055 19.7951 38.092 19.9315 38.1698 19.9807C38.2477 20.0284 38.4552 20.0358 38.7904 20.0024C40.4618 19.8626 41.8592 19.8495 42.9888 19.9559C43.3574 19.9956 43.5411 19.8519 43.5411 19.5246C43.5411 19.2879 43.359 19.1485 42.9888 19.1088C42.3914 19.0357 41.969 18.8845 41.7228 18.6589C41.4765 18.4333 41.3535 18.0717 41.3535 17.5728L41.307 6.60683C41.2974 5.822 41.3049 5.02157 41.3287 4.21132C41.3621 3.35976 41.3783 2.94917 41.3783 2.98253C41.3783 2.5647 41.2288 2.35883 40.9253 2.35883ZM24.5943 3.64968C24.5037 3.66556 24.4401 3.75153 24.3988 3.90723C24.3177 4.16142 24.4407 4.36145 24.768 4.50921C25.2907 4.74752 25.6494 5.01283 25.8417 5.30357C26.0339 5.59431 26.1302 6.01081 26.1302 6.55097V17.0639C26.1302 18.3826 25.7286 19.0865 24.9263 19.1771C24.5752 19.2104 24.3988 19.3303 24.3988 19.5432C24.3988 19.88 24.5736 20.0238 24.9263 19.9745C26.1861 19.8029 27.7868 19.7971 29.7266 19.9528C30.397 20.01 30.7572 19.9033 30.8064 19.6332C30.8557 19.3234 30.6793 19.147 30.2789 19.1057C29.4941 19.0072 28.9828 18.896 28.7461 18.7737C28.4426 18.6259 28.2899 18.3457 28.2899 17.9359V12.4125C28.2899 12.3077 28.3625 12.2512 28.5102 12.2512C29.8114 12.2512 30.7541 12.2868 31.3308 12.3567C31.9076 12.4266 32.3033 12.975 32.5162 13.9982C32.575 14.2682 32.7156 14.3881 32.9444 14.3643C33.2224 14.3484 33.3588 14.2359 33.3509 14.023C33.2683 12.2388 33.3424 10.7894 33.5712 9.67569C33.6125 9.47869 33.4924 9.35122 33.2144 9.29402C32.8871 9.22094 32.6975 9.34841 32.6403 9.67569C32.5498 10.2746 32.4579 10.6436 32.3641 10.7866C32.2704 10.9295 32.085 11.017 31.8149 11.0503C30.4311 11.1409 29.376 11.1913 28.6468 11.1993C28.41 11.2072 28.293 11.1184 28.293 10.9293V5.36563C28.293 5.17657 28.3314 5.05357 28.414 4.99638C28.5459 4.90582 28.8261 4.86295 29.2518 4.86295C31.1107 4.86295 32.2694 4.89847 32.7365 4.97155C33.1702 5.02875 33.5201 5.19931 33.7822 5.47734C34.0046 5.71406 34.2372 6.13048 34.4835 6.72785C34.5725 6.94868 34.7326 7.05987 34.9614 7.05987C35.1901 7.05987 35.3027 6.93239 35.3027 6.6782C35.3345 5.38497 35.4204 4.46465 35.5602 3.91653C35.5682 3.88317 35.5726 3.85234 35.5757 3.81103C35.5757 3.6887 35.3016 3.64114 34.7535 3.6745C33.1075 3.773 31.1542 3.82344 28.895 3.82344C26.979 3.82344 25.7622 3.78194 25.2459 3.69932C24.8932 3.64213 24.6769 3.62585 24.5943 3.64968ZM8.39353 3.94136C8.61277 3.98783 8.68846 4.11868 8.08633 4.19891L7.8443 4.18649C7.81252 3.93309 8.17428 3.89489 8.39353 3.94136ZM8.15149 4.78847C8.58681 4.97912 9.47925 5.0674 9.62541 5.54561C8.73414 5.0817 9.80276 6.10459 9.05446 6.08553C8.65093 6.09029 7.90365 5.22379 8.15149 4.78847ZM7.92808 5.50837C8.93692 6.27573 7.36589 5.50795 6.72722 5.98933C5.72155 6.09101 7.82958 5.42258 7.92808 5.50837ZM10.5935 5.96761C10.7223 6.00316 10.7223 6.12492 10.5098 6.38031C11.2914 7.31448 10.6851 6.99937 10.1529 6.33687C10.62 6.65938 10.2597 8.052 9.54163 7.094C9.03324 6.14711 8.71137 6.78712 9.24995 7.43533C8.7209 6.43919 7.18944 6.86475 6.06939 7.24605C5.34651 7.16661 7.94786 6.62843 8.22907 6.50133C8.66398 6.50967 10.2073 5.86097 10.5935 5.96761ZM13.7276 7.02263C14.0471 7.01851 14.3622 7.03055 14.674 7.05676C15.1744 7.63983 14.2951 8.6269 13.38 8.69204C12.2679 9.10829 11.136 9.21014 10.1033 9.34677C8.77827 9.17996 7.82682 10.3719 6.45416 10.5228C6.81956 9.84601 6.15396 10.2893 5.4581 10.2559C5.81238 11.6223 3.00668 9.89285 4.66373 9.56398C3.42134 9.12231 3.40396 10.4278 3.53424 11.1713H3.45046C2.31293 9.70652 3.57808 9.10913 5.01747 8.92166C4.74421 9.59687 5.41051 9.81401 6.05077 9.93634C7.08821 9.65037 5.36833 9.4664 6.15317 9.19472C6.58371 9.11529 4.78055 8.76348 6.28349 8.56171C7.82456 8.30275 9.21103 7.69722 10.7394 7.37947C11.7737 7.17453 12.769 7.03499 13.7276 7.02263ZM13.3862 7.37017C13.2502 7.32787 12.9339 7.41294 12.7718 7.83872C12.8894 8.10721 12.9477 7.7602 12.9239 7.66805C13.4792 7.58306 13.5223 7.41247 13.3862 7.37017ZM10.1809 7.94112C9.7362 7.92066 9.00775 8.01688 8.75037 8.32589C9.07765 8.47523 9.43752 7.91264 9.90779 8.26693C10.7856 8.10011 10.6255 7.96157 10.1809 7.94112ZM16.5296 8.02179C16.7518 7.9855 17.44 8.24248 17.1967 8.67342C17.0299 8.72108 17.0584 8.46959 16.9361 8.42829C16.432 8.17151 16.3962 8.04357 16.5296 8.02179ZM7.90946 8.61757C7.79326 8.61744 7.70027 8.67007 7.68915 8.81306L7.91256 9.01785C8.80503 9.09054 8.25806 8.61794 7.90946 8.61757ZM7.40988 9.02716C7.2442 9.00296 7.09069 9.09473 7.00649 9.40573C7.16218 9.3676 7.40948 9.45739 7.55882 9.57019C8.50015 10.2136 7.9069 9.09977 7.40988 9.02716ZM13.4638 9.17921C14.29 9.01752 14.0489 11.1561 13.7834 11.8137C14.2839 11.4721 14.1875 13.4011 14.0255 14.1192C14.2987 13.7522 14.4112 14.713 14.1061 15.3914C14.1316 15.2802 14.7672 15.1833 14.2985 15.9872C13.9411 15.1992 13.7858 17.5902 14.0161 16.5178C14.6469 15.5042 14.4817 16.4638 14.674 16.9119C14.7979 17.8413 15.2125 18.6985 15.338 19.5215C15.9211 20.1093 15.0897 19.7108 15.0929 20.5051C15.2819 20.2748 16.0534 20.8287 16.0486 21.6532C16.1122 20.3457 16.1873 21.3474 16.8244 21.6874C17.3566 22.5453 17.7553 23.348 18.5496 24.055C19.1692 24.7715 18.5107 24.2681 18.7792 24.7066C19.437 25.8727 20.9608 26.5488 22.2794 26.8539C22.8577 27.6069 23.7258 28.356 24.9014 28.0144C23.9069 28.6276 27.7025 28.7944 26.4188 29.1408C25.7515 29.503 25.1184 28.9073 24.467 28.9391C23.5615 28.6277 22.13 27.6734 21.1592 28.3216C19.8168 29.162 21.8472 27.3845 20.759 28.1788C19.6564 29.5023 20.01 27.3554 18.9344 27.9989C18.8724 27.7939 17.9783 27.7374 18.6551 27.3752C18.0482 27.337 18.4266 27.2981 18.6458 26.8135C18.3853 26.7595 16.937 26.8107 16.3682 26.3357C15.6978 25.4634 16.4853 25.8176 17.1843 25.9447C16.0627 26.1417 17.5701 26.7862 18.32 26.4287C17.9832 26.2858 17.5977 25.5578 16.7064 24.9207C15.4609 24.1708 14.4358 23.813 13.1442 23.214C11.7461 22.3847 13.4571 22.9199 13.9417 23.3568C15.3366 23.9716 14.7876 22.4939 13.9789 22.1094C13.0924 22.1459 12.8645 21.1275 12.1544 21.1847C13.276 21.3642 14.0547 20.8946 12.806 19.7666C11.6192 18.3812 13.3016 20.8119 12.6105 20.4989C12.2959 20.0843 12.5316 19.4877 11.5275 19.2732C11.5164 19.6561 11.39 20.2494 11.1707 19.4439C10.8911 19.4916 10.571 19.7985 10.3422 18.9692C10.5583 18.027 9.40927 17.8119 9.23133 17.2098C10.2243 17.8437 10.6737 17.3439 9.96985 16.6512C9.48528 15.8044 9.41764 16.4685 9.14755 16.5861C8.17366 17.5806 9.05839 14.8704 8.62625 15.6521C8.19094 15.6393 8.44144 16.1311 8.44938 16.7412C7.02588 16.3885 8.79503 17.4903 9.20651 18.0972C8.55672 17.4172 8.66691 18.6069 8.12357 18.0414C7.93927 17.5409 7.91358 16.7507 7.00959 16.6109C8.0375 16.255 6.3982 15.5319 6.53483 15.4938C7.12266 14.9584 7.19778 14.2225 7.90636 15.3728C7.00872 15.2997 7.88101 16.8545 8.10185 16.3906C8.06689 15.5946 8.46877 14.7592 7.11199 14.3922C6.71322 14.9292 6.02587 13.3402 6.82341 13.6754C6.71856 12.6205 8.06041 13.2424 7.97462 12.7849C8.66731 12.4814 7.13607 11.5017 7.96221 11.1093C8.59453 11.4937 10.2346 10.5043 9.13204 10.3677C9.82155 10.3613 10.3746 10.6633 10.4477 9.96427C11.0054 10.085 12.5139 10.5654 11.1428 9.80912C11.5813 9.59146 12.508 9.40747 13.0418 9.39952C13.2064 9.27143 13.3458 9.20231 13.4638 9.17921ZM60.5517 10.0667C59.4968 10.0667 58.6535 10.3022 58.0228 10.7773C57.3428 11.2698 57.005 11.9558 57.005 12.8407C57.005 13.5604 57.2229 14.134 57.6566 14.5598C58.057 14.9602 58.8543 15.427 60.049 15.9592C60.8752 16.3199 61.4325 16.6356 61.7185 16.9057C61.9806 17.144 62.1125 17.4373 62.1125 17.79C62.1125 18.5923 61.5361 18.994 60.3811 18.994C59.0132 18.994 58.0217 18.459 57.4084 17.3866C57.2686 17.1499 57.0996 17.0432 56.9026 17.067C56.7056 17.0829 56.6078 17.3066 56.6078 17.7404C56.6078 18.7476 56.642 19.3109 56.7071 19.4253C56.8136 19.5476 57.1989 19.6809 57.8614 19.8287C58.6304 19.9923 59.4011 20.0769 60.1701 20.0769C61.3251 20.0769 62.2365 19.819 62.9038 19.3074C63.5711 18.7958 63.903 18.1082 63.903 17.2408C63.903 16.456 63.6584 15.8291 63.1707 15.3573C62.7941 14.9982 62.0813 14.5905 61.0327 14.1409C60.0334 13.7072 59.4006 13.387 59.1306 13.1821C58.8271 12.9438 58.6744 12.6283 58.6744 12.2263C58.6744 11.5067 59.2346 11.1465 60.3562 11.1465C61.3476 11.1465 62.1672 11.6725 62.8138 12.729C62.9044 12.8768 63.0837 12.9228 63.3537 12.8656C63.6063 12.8004 63.722 12.7145 63.6982 12.608C63.4932 11.7406 63.3568 11.0781 63.2917 10.619C63.2663 10.4633 62.9595 10.3314 62.3701 10.2249C61.822 10.1201 61.2142 10.0667 60.5517 10.0667ZM50.3305 10.1163C49.3645 10.1163 48.3598 10.3936 47.3113 10.9417C46.312 11.466 45.8125 11.9239 45.8125 12.3163C45.8125 12.9455 46.149 13.2286 46.821 13.1635C47.4104 13.1142 47.8624 12.7733 48.177 12.1426C48.4916 11.5118 48.8266 11.1962 49.1793 11.1962C50.4153 11.1962 51.0065 11.8706 50.9573 13.2131L50.9356 13.9982C50.9276 14.3413 50.6445 14.5682 50.0884 14.6746C46.8458 15.2894 45.2261 16.3031 45.2261 17.7186C45.2261 18.4638 45.4705 19.0536 45.9615 19.4874C46.4111 19.8798 46.9712 20.0769 47.6433 20.0769C48.355 20.0769 49.065 19.9095 49.7688 19.5742C50.4726 19.239 50.8625 19.0684 50.9356 19.0684C51.0341 19.0684 51.2044 19.2256 51.4507 19.537C51.6953 19.8484 51.9784 20.0024 52.2978 20.0024C52.6743 20.0024 53.1768 19.8291 53.8027 19.4811C54.4287 19.1332 54.7429 18.8739 54.7429 18.7023C54.7429 18.383 54.6229 18.2229 54.383 18.2213C54.3417 18.2213 54.1966 18.2421 53.9424 18.2834C53.6882 18.3247 53.5178 18.3455 53.4273 18.3455C52.9697 18.3455 52.7429 18.0802 52.7508 17.548L52.8005 12.487C52.8163 10.9062 51.9923 10.1163 50.3305 10.1163ZM13.3738 10.4918C13.1649 10.5517 12.8383 11.662 13.0635 12.0588C13.5592 12.8484 14.0552 10.1181 13.6469 11.0348C13.4276 12.2025 13.2035 11.7146 13.5197 10.8455C13.5006 10.5663 13.4435 10.4718 13.3738 10.4918ZM6.3983 11.5251C6.47727 11.5215 6.61593 11.5279 6.82962 11.5499C7.9322 11.5118 7.57818 12.1617 6.95064 12.2046C6.93634 12.2459 6.37576 12.0702 6.60931 11.916C8.12178 12.1079 5.84555 11.5499 6.3983 11.5251ZM9.17548 11.9098C9.26743 12.116 9.42337 12.5039 9.30581 12.6763C9.61561 12.9829 10.674 13.5286 9.82401 12.7787C10.3658 12.6706 9.75244 12.4992 9.42993 12.2419C9.05578 11.6802 9.08353 11.7037 9.17548 11.9098ZM5.57911 11.9378C5.82934 11.928 6.08619 12.0565 5.60083 12.3536C5.08529 12.0954 5.32889 11.9475 5.57911 11.9378ZM12.6322 12.6608C12.6162 12.6379 12.6077 12.6582 12.626 12.7694C12.8131 13.1888 12.6804 12.7293 12.6322 12.6608ZM8.87449 13.0797C9.02065 13.291 9.4163 13.1974 9.60059 13.4024C11.2656 14.0919 9.4512 12.9558 8.87449 13.0797ZM8.61384 13.21C8.53193 13.2286 8.54664 13.3374 8.72865 13.5886C8.84304 13.8475 9.11888 13.8695 9.34925 13.9299C11.1358 14.7535 8.96879 13.1293 8.61384 13.21ZM5.53877 13.3496C5.81025 13.3939 6.13676 13.5403 5.7777 13.6817L5.63186 13.6258C5.05118 13.3613 5.2673 13.3053 5.53877 13.3496ZM8.06461 13.5668C7.98326 13.5711 8.05304 13.6932 8.43076 14.0292L8.6759 14.2805C9.91511 14.6201 8.30865 13.5541 8.06461 13.5668ZM7.89705 13.8989C7.83308 13.8969 8.4079 14.5116 8.14218 14.5008C7.22231 13.8288 7.59784 14.3041 8.11736 14.8205C8.68136 15.6577 9.14736 14.3217 8.22907 14.1533C8.01062 13.9698 7.91837 13.8995 7.89705 13.8989ZM11.8006 14.7739C11.7889 14.8123 11.7869 14.9418 11.8099 15.2238C11.9636 15.3633 11.8357 14.6588 11.8006 14.7739ZM12.6136 14.8453C12.4154 14.8465 12.2666 16.2514 12.7563 16.5457C12.9581 17.1256 13.1735 16.8869 13.2466 16.2292C12.7732 16.2387 13.4415 15.1989 12.806 15.4038C12.7504 14.9991 12.6797 14.8449 12.6136 14.8453ZM13.982 14.8763C13.9465 14.7975 13.861 14.9698 13.83 15.5466V15.711C14.0016 15.2844 14.0176 14.9551 13.982 14.8763ZM4.70407 14.9228C4.82963 14.8926 5.5453 16.342 5.44879 16.7412C5.0103 16.5887 5.03155 15.9026 4.82819 15.5403C4.68719 15.1078 4.66221 14.9329 4.70407 14.9228ZM9.93261 14.9942C9.81663 15.3167 10.1788 16.3744 10.3981 16.735C10.9573 17.5945 10.7064 16.265 11.3196 17.1229C10.9828 16.3698 11.478 16.7798 11.4065 16.4588C11.2508 16.1347 9.74276 14.4193 10.4291 15.7141C11.0503 17.2584 10.0391 15.5201 9.93261 14.9942ZM4.40928 15.2456C4.57717 15.3538 5.02715 16.0859 5.11056 16.493C5.81755 17.3445 5.53867 17.8136 6.27108 18.8574C5.32896 18.2633 5.15097 16.8449 4.55202 15.9282C4.30716 15.3402 4.30855 15.1806 4.40928 15.2456ZM50.6222 15.4379C50.703 15.4441 50.7668 15.4643 50.8176 15.4969C50.9209 15.562 50.9683 15.6953 50.9604 15.9003L50.9356 17.9172C50.9356 18.1714 50.6821 18.3893 50.1753 18.5689C49.7416 18.7246 49.3192 18.8016 48.9093 18.8016C47.8862 18.8016 47.3733 18.3318 47.3733 17.3897C47.3733 16.4556 48.3604 15.8124 50.3336 15.4597C50.444 15.439 50.5413 15.4318 50.6222 15.4379ZM9.6099 17.9141C9.98889 18.0331 9.75984 19.2726 10.3298 19.4408C11.6024 21.101 9.44835 19.4896 8.72865 19.3291C8.8208 19.3243 8.08978 19.1213 8.40594 19.0498C8.17557 18.8131 7.66 17.9534 8.83725 18.5285C9.77302 18.9972 9.85154 18.681 9.4051 17.9359C9.48811 17.9007 9.55576 17.8971 9.6099 17.9141ZM5.31536 18.1562C5.34686 17.9977 5.99486 19.04 6.11283 19.4749C6.4687 20.6077 7.58255 21.2602 7.69535 22.0101C8.9298 22.7218 8.29629 23.8828 9.33373 24.2101C9.79447 23.9766 9.83982 25.6082 10.8201 25.2682C10.2751 25.524 11.0495 25.8265 11.3228 26.3015C11.9408 26.2173 13.2953 27.663 11.9465 27.1642C11.3777 27.0434 10.9893 26.4518 10.5873 26.0657C9.3942 25.3079 8.61987 24.04 7.96531 22.8262C7.1217 21.5504 6.10617 20.2748 5.52946 18.783C5.36026 18.3957 5.30486 18.209 5.31536 18.1562ZM14.795 19.115C14.7321 19.1472 14.7288 19.3357 14.9129 19.748L15.0215 19.9249C15.1715 19.4373 14.8998 19.0613 14.795 19.115ZM10.5036 20.5734C10.8547 20.6499 11.3829 20.8385 11.5958 20.8806C11.6546 21.1332 10.3924 21.094 11.4965 21.5881C10.8531 21.5706 10.6589 21.5221 11.5772 22.0846C11.2166 22.3737 12.3043 22.6035 11.9309 23.0372C13.0383 23.9014 11.731 23.2564 11.2576 22.9037C10.978 22.7099 9.83845 22.3248 10.0164 22.0721C11.3605 22.7775 10.3576 22.0412 9.76505 21.5726C10.8486 21.8379 8.89683 20.7701 9.92951 21.0513C10.2361 21.1259 9.4652 20.4186 10.4756 20.9333C9.97836 20.5314 10.1525 20.4969 10.5036 20.5734ZM17.2433 23.2823C17.1048 23.2335 17.2418 23.7693 17.5505 24.0922C18.2082 24.8754 17.7079 23.6475 17.4791 23.5554C17.3679 23.3802 17.2894 23.2986 17.2433 23.2823ZM11.4407 24.0519C11.8069 24.0558 12.4056 24.221 12.775 24.418C14.3955 24.7787 12.4302 25.2132 11.782 24.7159L11.5089 24.6569C10.9425 24.2073 11.0745 24.0479 11.4407 24.0519ZM13.3769 24.2225C13.5117 24.1938 14.1243 24.4457 14.3854 24.688C15.1623 24.7928 15.1657 25.1477 14.3078 24.9269C14.1553 24.8332 13.9094 24.8384 13.83 24.6414C13.3879 24.359 13.2961 24.2398 13.3769 24.2225ZM14.4102 24.2349C14.6553 24.2308 15.0566 24.3004 15.1829 24.4863C16.8844 24.7595 15.0752 24.8784 14.5716 24.4304C14.0767 24.3168 14.1652 24.2391 14.4102 24.2349ZM14.4102 25.1938C14.5942 25.1531 15.7954 25.649 14.9315 25.5382L14.6802 25.4575C14.401 25.2824 14.3489 25.2073 14.4102 25.1938ZM20.1353 25.4823C20.1889 25.5012 20.2434 25.5503 20.2811 25.6468C19.8343 25.6396 19.9744 25.4258 20.1353 25.4823ZM14.4164 25.9478C14.7655 25.9815 16.1083 26.7151 14.9191 26.3791L14.736 26.3077L14.5281 26.2115C14.2926 26.0022 14.3001 25.9365 14.4164 25.9478ZM17.3053 27.8809C17.4666 27.8553 18.7913 27.9755 17.6653 27.9647C17.3265 27.9131 17.2516 27.8895 17.3053 27.8809ZM13.7834 28.0764C13.8788 28.0978 14.03 28.1444 14.252 28.2254C15.6739 29.104 17.3132 29.5686 18.832 30.2454C20.1665 30.4202 21.5737 30.7734 22.8876 30.4906C23.9838 31.0387 25.1208 30.3486 26.2202 30.8443C23.791 31.3178 21.292 30.7995 18.8723 30.4626C17.3471 30.2704 15.985 29.6374 14.5933 29.0353C14.3915 28.9399 14.2007 28.8207 14.0068 28.7094C13.0504 28.1788 13.1689 28.0704 14.0999 28.5915C14.4288 28.8537 16.762 29.8087 15.6514 29.178C15.2316 29.0737 13.1158 27.9272 13.7834 28.0764ZM22.627 28.4984C22.7358 28.5683 22.7395 28.7966 22.7356 29.0849C22.0047 29.892 22.4405 28.755 21.9877 29.1935C21.5699 29.5271 21.669 28.9948 21.8946 28.8677C22.3037 28.5174 22.5181 28.4285 22.627 28.4984ZM28.7181 28.756C29.3705 28.8122 30.1168 28.9629 30.5489 28.9732C30.2868 29.5245 28.6665 29.0179 27.9548 29.1625L27.6476 29.1439L27.4583 29.1128C27.5084 28.7379 28.0658 28.6998 28.7181 28.756ZM34.3283 28.9329C36.0156 28.9313 34.4396 29.1781 33.6643 29.1749C32.7841 28.9684 34.063 28.9742 34.3283 28.9329ZM24.166 29.1532C24.3011 29.1379 24.3472 29.2444 23.9643 29.4914L23.8247 29.5348C23.8056 29.3029 24.031 29.1685 24.166 29.1532ZM23.5237 29.2525C23.5485 29.2909 23.4931 29.4007 23.2786 29.6279C22.6542 29.6684 23.4492 29.1373 23.5237 29.2525ZM17.4356 29.4262C17.588 29.388 19.2293 29.8613 19.4402 29.8172C21.1131 30.4384 18.4416 30.0193 17.8887 29.6714C17.5006 29.5073 17.3849 29.439 17.4356 29.4262ZM25.5189 29.5069C25.5226 29.5486 25.4355 29.6463 25.19 29.8234L24.9852 29.9569C24.6945 29.7555 25.5081 29.3819 25.5189 29.5069Z" fill="#currentColor"/>
</g>
<defs>
<clipPath id="clip0_458_565">
<rect fill="currentColor" width="250" height="39" transform="translate(0.5 0.788818)"/>
</clipPath>
</defs>
</svg>
