<svg viewBox="0 0 49 48" fill="currentColor" xmlns="http://www.w3.org/2000/svg">
<path d="M20.2759 27.476L15.7679 28.25C16.4216 30.0782 17.6521 31.6443 19.2739 32.712L21.0039 28.522C21.0442 28.4538 21.069 28.3777 21.0766 28.2989C21.0842 28.2201 21.0744 28.1406 21.0479 28.066C21.0039 27.706 20.6399 27.476 20.2759 27.476V27.476ZM22.0059 21.648C22.4159 21.648 22.7799 21.33 22.7799 20.92L23.0079 16.366L22.0959 16.548C20.499 16.9236 19.0346 17.727 17.8599 18.872L21.6399 21.558C21.7779 21.602 21.8699 21.648 22.0059 21.648V21.648ZM20.0019 24.608C20.0663 24.5339 20.1151 24.4477 20.1455 24.3544C20.1759 24.2611 20.1873 24.1627 20.1789 24.0649C20.1705 23.9671 20.1425 23.8721 20.0967 23.7853C20.0508 23.6986 19.9879 23.6219 19.9119 23.56L16.5419 20.554C15.5474 22.2288 15.0863 24.1667 15.2199 26.11L19.6379 24.836C19.8199 24.79 19.9119 24.744 20.0019 24.608ZM22.9159 26.202L24.1479 26.794L25.3759 26.202L25.6959 24.88L24.8299 23.788H23.4639L22.5979 24.88L22.9159 26.202ZM25.6039 21.33C25.8319 21.648 26.2859 21.694 26.6039 21.512L30.3379 18.872C28.9536 17.4886 27.1377 16.6205 25.1919 16.412L25.4659 21.012C25.4655 21.0716 25.4776 21.1307 25.5014 21.1855C25.5251 21.2402 25.56 21.2894 25.6039 21.33V21.33Z" fill="currentColor"/>
<path d="M44.138 28.206L40.678 13.314C40.452 12.586 39.904 11.994 39.22 11.63L25.332 4.97995C24.968 4.79795 24.558 4.75195 24.194 4.75195C23.83 4.75195 23.42 4.75195 23.056 4.84195L9.16397 11.538C8.82189 11.6944 8.52059 11.9278 8.28363 12.2199C8.04667 12.512 7.88046 12.855 7.79797 13.222L4.38197 28.206C4.24597 28.98 4.42797 29.754 4.88197 30.392L14.492 42.278C15.038 42.824 15.812 43.19 16.586 43.236H31.888C32.708 43.326 33.482 42.962 33.984 42.278L43.594 30.392C44.048 29.754 44.23 28.98 44.138 28.206V28.206ZM38.448 29.208C38.356 29.208 38.312 29.208 38.22 29.162C38.176 29.116 38.176 29.116 38.13 29.116C38.038 29.116 37.994 29.072 37.946 29.072C37.764 29.026 37.628 28.936 37.446 28.844C37.349 28.8352 37.2553 28.8044 37.172 28.754H37.128C36.6564 28.5704 36.1681 28.4331 35.67 28.344H35.626C35.4916 28.3405 35.3612 28.3893 35.262 28.48C35.262 28.48 35.262 28.526 35.216 28.526L34.85 28.478C34.0134 31.0699 32.2653 33.2705 29.93 34.672L30.066 35.036C30.066 35.036 30.022 35.036 30.022 35.08C29.9809 35.1478 29.9556 35.224 29.9479 35.3029C29.9403 35.3819 29.9506 35.4615 29.978 35.536C30.16 35.992 30.388 36.446 30.706 36.856V36.946C30.7802 37.01 30.8419 37.0873 30.888 37.174C31.0195 37.3065 31.127 37.4608 31.206 37.63C31.252 37.674 31.298 37.72 31.298 37.766C31.298 37.766 31.342 37.766 31.342 37.81C31.4256 38.0282 31.4416 38.2665 31.388 38.494C31.3606 38.6023 31.3097 38.7033 31.2388 38.7897C31.1679 38.8762 31.0789 38.9459 30.978 38.994C30.842 39.038 30.75 39.084 30.612 39.084C30.4324 39.0771 30.2577 39.0231 30.1057 38.9272C29.9536 38.8313 29.8296 38.6971 29.746 38.538C29.702 38.538 29.702 38.494 29.702 38.494C29.658 38.448 29.658 38.404 29.61 38.358C29.52 38.222 29.474 38.04 29.428 37.858L29.336 37.584V37.54C29.1865 37.0506 28.9881 36.5776 28.744 36.128C28.6563 35.9989 28.5282 35.9026 28.38 35.854C28.38 35.808 28.38 35.808 28.334 35.808L28.152 35.49C27.696 35.626 27.194 35.808 26.694 35.9C25.874 36.128 25.054 36.218 24.236 36.218C22.8812 36.2274 21.5369 35.9804 20.274 35.49L20.092 35.854C20.092 35.9 20.092 35.9 20.046 35.9C19.8975 35.9481 19.7694 36.0446 19.682 36.174C19.454 36.63 19.226 37.084 19.09 37.586L19 37.86C18.954 38.042 18.864 38.178 18.818 38.36C18.774 38.406 18.728 38.45 18.728 38.496C18.682 38.496 18.682 38.54 18.682 38.54C18.5989 38.6995 18.4749 38.8341 18.3228 38.93C18.1706 39.0259 17.9957 39.0797 17.816 39.086C17.7052 39.0766 17.5972 39.046 17.498 38.996C17.2924 38.8755 17.1405 38.6813 17.0729 38.4529C17.0053 38.2245 17.0271 37.9789 17.134 37.766C17.18 37.766 17.18 37.72 17.18 37.72C17.224 37.674 17.224 37.63 17.27 37.584C17.406 37.402 17.498 37.22 17.588 37.128C17.678 37.036 17.724 36.992 17.77 36.9V36.854C18.0566 36.4397 18.3005 35.9974 18.498 35.534C18.5245 35.4593 18.5341 35.3796 18.5262 35.3008C18.5182 35.2219 18.4929 35.1458 18.452 35.078C18.452 35.078 18.408 35.078 18.408 35.034L18.636 34.714C18.1988 34.4838 17.7866 34.209 17.406 33.894C15.6519 32.5357 14.3501 30.6782 13.672 28.566L13.262 28.61C13.262 28.61 13.262 28.566 13.216 28.566C13.1172 28.4745 12.9865 28.4257 12.852 28.43H12.808C12.2952 28.5176 11.7922 28.655 11.306 28.84H11.258C11.168 28.84 11.076 28.886 10.984 28.932C10.848 28.976 10.666 29.068 10.484 29.114C10.44 29.114 10.302 29.07 10.302 29.114C10.302 29.16 10.302 29.16 10.256 29.16C10.166 29.206 10.12 29.206 10.028 29.206C9.82457 29.2275 9.62025 29.1748 9.45266 29.0575C9.28506 28.9403 9.16549 28.7664 9.11597 28.568C9.09325 28.4512 9.09417 28.331 9.11867 28.2146C9.14318 28.0982 9.19077 27.9879 9.25864 27.8902C9.32651 27.7925 9.41328 27.7094 9.51381 27.6458C9.61435 27.5822 9.72661 27.5394 9.84397 27.52C9.88997 27.474 9.88997 27.474 9.93597 27.474C10.026 27.474 10.072 27.43 10.118 27.43C10.3 27.43 10.482 27.384 10.664 27.384C10.754 27.34 10.846 27.34 10.938 27.34C11.4614 27.2972 11.9797 27.2055 12.486 27.066C12.622 26.974 12.76 26.884 12.806 26.746C12.806 26.746 12.85 26.746 12.85 26.702L13.214 26.61C12.804 24.014 13.396 21.374 14.808 19.142C14.852 19.052 14.898 19.006 14.944 18.914L14.682 18.65C14.6805 18.6628 14.6778 18.6756 14.674 18.688V18.642L14.682 18.65C14.702 18.52 14.62 18.36 14.538 18.278C14.174 17.914 13.718 17.64 13.262 17.368L12.99 17.23C12.8178 17.1486 12.6502 17.0578 12.488 16.958C12.444 16.958 12.352 16.868 12.352 16.868C12.352 16.868 12.352 16.822 12.308 16.822C12.1277 16.6674 12.0096 16.4526 11.9758 16.2175C11.9419 15.9825 11.9946 15.7431 12.124 15.544C12.26 15.316 12.488 15.226 12.762 15.226C12.9936 15.2316 13.2173 15.3115 13.4 15.454L13.446 15.5C13.49 15.544 13.536 15.544 13.582 15.59C13.718 15.728 13.81 15.864 13.946 16C13.992 16.044 14.082 16.09 14.128 16.182C14.446 16.546 14.856 16.91 15.266 17.23C15.356 17.274 15.448 17.32 15.54 17.32C15.63 17.32 15.676 17.274 15.722 17.274H15.768L16.042 17.456C17.5433 15.8505 19.4969 14.7387 21.644 14.268C22.19 14.176 22.69 14.086 23.192 14.04L23.238 13.676V13.586C23.374 13.496 23.42 13.358 23.466 13.222C23.466 12.676 23.466 12.174 23.376 11.674V11.628C23.376 11.538 23.376 11.446 23.33 11.354C23.2777 11.1763 23.2475 10.993 23.24 10.808V10.582C23.24 10.354 23.33 10.126 23.514 9.94395C23.742 9.71595 24.014 9.57995 24.288 9.62595C24.5142 9.65734 24.7201 9.77358 24.8638 9.95109C25.0075 10.1286 25.0784 10.3541 25.062 10.582V10.856C25.016 11.038 25.016 11.22 24.972 11.402C24.972 11.492 24.926 11.584 24.926 11.674V11.72C24.83 12.266 24.83 12.768 24.83 13.268C24.876 13.404 24.92 13.54 25.058 13.632V13.586L25.104 13.95C27.2587 14.175 29.3084 14.9949 31.024 16.318C31.39 16.682 31.798 17.046 32.162 17.41L32.528 17.182H32.572C32.616 17.228 32.708 17.228 32.754 17.228C32.846 17.228 32.936 17.182 33.028 17.138C33.438 16.864 33.848 16.5 34.166 16.136C34.21 16.09 34.302 16.044 34.348 15.954C34.44 15.818 34.576 15.68 34.714 15.544C34.758 15.544 34.804 15.5 34.85 15.454L34.894 15.408C35.0765 15.2666 35.2992 15.1868 35.53 15.18C35.758 15.18 36.032 15.316 36.168 15.5C36.486 15.91 36.394 16.456 35.986 16.774C35.986 16.82 36.03 16.82 35.986 16.866C35.94 16.91 35.894 16.91 35.85 16.956C35.666 17.046 35.53 17.138 35.348 17.23L35.074 17.366C34.6206 17.6279 34.1933 17.9326 33.798 18.276C33.708 18.368 33.662 18.55 33.662 18.686V18.732L33.39 19.006C34.118 20.144 34.666 21.42 34.984 22.74C35.258 24.06 35.348 25.426 35.166 26.746L35.53 26.838C35.5581 26.9104 35.6012 26.9761 35.6563 27.0309C35.7114 27.0856 35.7774 27.1283 35.85 27.156C36.35 27.292 36.896 27.384 37.396 27.43H37.442C37.5285 27.466 37.6224 27.4811 37.716 27.474C37.898 27.474 38.08 27.474 38.26 27.52C38.352 27.52 38.444 27.52 38.444 27.566C38.444 27.61 38.488 27.61 38.534 27.61C38.7542 27.6628 38.9521 27.7839 39.0994 27.9559C39.2466 28.128 39.3358 28.3422 39.354 28.568C39.2853 28.7537 39.162 28.9142 39.0002 29.0285C38.8385 29.1427 38.646 29.2053 38.448 29.208V29.208Z" fill="currentColor"/>
<path d="M24.4198 29.436C24.2719 29.3508 24.098 29.3223 23.9306 29.3558C23.7632 29.3893 23.6137 29.4824 23.5098 29.618L21.2778 33.672C22.1898 33.944 23.1918 34.128 24.1478 34.128C24.8298 34.128 25.4678 34.038 26.1058 33.9C26.4238 33.81 26.6978 33.764 26.9718 33.718L24.7858 29.756C24.6478 29.618 24.5558 29.526 24.4198 29.436V29.436ZM31.7078 20.554L28.2918 23.65C28.2045 23.739 28.1417 23.8493 28.1098 23.97C28.0178 24.38 28.2458 24.79 28.6558 24.88L32.9818 26.11C33.0792 25.1497 33.017 24.1799 32.7978 23.24C32.5778 22.293 32.2099 21.3865 31.7078 20.554V20.554ZM27.5618 27.522C27.4022 27.5946 27.2734 27.7214 27.1983 27.8799C27.1233 28.0384 27.1068 28.2184 27.1518 28.388L28.9298 32.67C30.0331 31.9747 30.9666 31.0412 31.6618 29.938C32.0258 29.438 32.2978 28.844 32.5278 28.208L27.9738 27.434C27.8326 27.4401 27.6933 27.4699 27.5618 27.522V27.522Z" fill="currentColor"/>
</svg>
