<svg viewBox="0 0 48 48" fill="currentColor" xmlns="http://www.w3.org/2000/svg">
<path d="M18.974 31.5C18.974 32.328 18.303 33 17.474 33C16.645 33 15.974 32.328 15.974 31.5V17.5C15.974 16.847 16.397 16.269 17.019 16.07C17.644 15.872 18.321 16.1 18.698 16.633L35.475 40.337C40.617 36.709 44 30.735 44 24C44 13 35 4 24 4C13 4 4 13 4 24C4 35 13 44 24 44C27.192 44 30.206 43.223 32.89 41.878L18.974 22.216V31.5ZM28.974 16.5C28.974 15.672 29.645 15 30.474 15C31.303 15 31.974 15.672 31.974 16.5V30.34L28.974 26.113V16.5Z" fill="currentColor"/>
</svg>
