<svg viewBox="0 0 48 48" fill="currentColor" xmlns="http://www.w3.org/2000/svg">
<path d="M24.0002 43.9701C23.4502 43.9701 22.9362 43.8221 22.4562 43.5661L17.5782 40.6701C16.8482 40.2641 17.2142 40.1161 17.4342 40.0421C18.4262 39.7121 18.6102 39.6401 19.6362 39.0561C19.7482 38.9821 19.8942 39.0161 20.0062 39.0901L23.7462 41.3301C23.8942 41.4021 24.0782 41.4021 24.1882 41.3301L38.8262 32.8561C38.9742 32.7841 39.0462 32.6361 39.0462 32.4521V15.5361C39.0462 15.3541 38.9742 15.2061 38.8262 15.1341L24.1882 6.69614C24.0422 6.62214 23.8582 6.62214 23.7462 6.69614L9.10418 15.1321C8.95818 15.2041 8.88418 15.3901 8.88418 15.5341V32.4481C8.88418 32.5941 8.95818 32.7801 9.10418 32.8521L13.1042 35.1661C15.2682 36.2621 16.6282 34.9761 16.6282 33.6961V17.0041C16.6282 16.7841 16.8102 16.5621 17.0682 16.5621H18.9402C19.1562 16.5621 19.3802 16.7461 19.3802 17.0041V33.6981C19.3802 36.5961 17.8042 38.2861 15.0522 38.2861C14.2082 38.2861 13.5482 38.2861 11.6762 37.3661L7.82618 35.1681C7.3571 34.8954 6.9678 34.5044 6.6972 34.0341C6.42661 33.5638 6.28419 33.0307 6.28418 32.4881V15.5721C6.28418 14.4721 6.87018 13.4441 7.82618 12.8941L22.4582 4.42014C22.9332 4.16611 23.4635 4.0332 24.0022 4.0332C24.5408 4.0332 25.0712 4.16611 25.5462 4.42014L40.1802 12.8941C41.1382 13.4421 41.7222 14.4721 41.7222 15.5721V32.4881C41.7222 33.5861 41.1362 34.6141 40.1802 35.1681L25.5462 43.6401C25.0642 43.8601 24.5142 43.9701 24.0002 43.9701V43.9701ZM28.5122 32.3381C22.0922 32.3381 20.7722 29.4021 20.7722 26.9101C20.7722 26.6901 20.9562 26.4681 21.2122 26.4681H23.1202C23.3402 26.4681 23.5222 26.6141 23.5222 26.8361C23.8162 28.7781 24.6582 29.7341 28.5502 29.7341C31.6302 29.7341 32.9542 29.0341 32.9542 27.3841C32.9542 26.4301 32.5842 25.7341 27.7802 25.2581C23.7822 24.8581 21.2882 23.9721 21.2882 20.7821C21.2882 17.8121 23.7822 16.0501 27.9662 16.0501C32.6602 16.0501 34.9722 17.6681 35.2642 21.1861C35.2607 21.3049 35.2217 21.4198 35.1522 21.5161C35.0782 21.5881 34.9702 21.6621 34.8602 21.6621H32.9542C32.86 21.6601 32.7691 21.6268 32.6959 21.5674C32.6228 21.508 32.5715 21.4259 32.5502 21.3341C32.1082 19.3101 30.9722 18.6541 27.9662 18.6541C24.5882 18.6541 24.1842 19.8281 24.1842 20.7081C24.1842 21.7701 24.6582 22.1001 29.2122 22.6881C33.7242 23.2741 35.8522 24.1181 35.8522 27.2761C35.8122 30.5061 33.1742 32.3381 28.5122 32.3381V32.3381Z" fill="currentColor"/>
</svg>
