<svg viewBox="0 0 48 48" fill="currentColor" xmlns="http://www.w3.org/2000/svg">
<path d="M19.1698 23.384H27.8258C27.8258 23.384 32.6898 23.462 32.6898 18.684V10.782C32.6898 10.782 33.4278 6 23.8718 6C14.7238 6 15.2938 9.966 15.2938 9.966L15.3058 14.076H24.0318V15.31H11.8398C11.8398 15.31 5.98584 14.646 5.98584 23.874C5.98584 33.102 11.0958 32.774 11.0958 32.774H14.1438V28.492C14.1438 28.492 13.9778 23.384 19.1698 23.384ZM19.0578 11.904C18.6415 11.904 18.2421 11.7386 17.9477 11.4442C17.6533 11.1497 17.4878 10.7504 17.4878 10.334C17.4878 9.91761 17.6533 9.51827 17.9477 9.22384C18.2421 8.92941 18.6415 8.764 19.0578 8.764C19.4742 8.764 19.8736 8.92941 20.168 9.22384C20.4624 9.51827 20.6278 9.91761 20.6278 10.334C20.6278 10.7504 20.4624 11.1497 20.168 11.4442C19.8736 11.7386 19.4742 11.904 19.0578 11.904Z" fill="currentColor"/>
<path d="M36.9041 15.0639H33.8561V19.3459C33.8561 19.3459 34.0221 24.4539 28.8301 24.4539H20.1741C20.1741 24.4539 15.3101 24.3739 15.3101 29.1539V37.0559C15.3101 37.0559 14.5721 41.8379 24.1281 41.8379C33.2741 41.8379 32.7041 37.8719 32.7041 37.8719L32.6921 33.7639H23.9661V32.5299H36.1601C36.1601 32.5299 42.0141 33.1939 42.0141 23.9659C42.0141 14.7379 36.9041 15.0639 36.9041 15.0639V15.0639ZM28.9421 35.9359C29.3585 35.9359 29.7578 36.1013 30.0522 36.3958C30.3467 36.6902 30.5121 37.0895 30.5121 37.5059C30.5121 37.9223 30.3467 38.3216 30.0522 38.6161C29.7578 38.9105 29.3585 39.0759 28.9421 39.0759C28.5257 39.0759 28.1264 38.9105 27.8319 38.6161C27.5375 38.3216 27.3721 37.9223 27.3721 37.5059C27.3721 37.0895 27.5375 36.6902 27.8319 36.3958C28.1264 36.1013 28.5257 35.9359 28.9421 35.9359V35.9359Z" fill="currentColor"/>
</svg>
