<svg viewBox="0 0 49 48" fill="currentColor" xmlns="http://www.w3.org/2000/svg">
<path d="M24.5002 26.0599C26.4718 26.0599 28.0702 24.4616 28.0702 22.4899C28.0702 20.5183 26.4718 18.9199 24.5002 18.9199C22.5285 18.9199 20.9302 20.5183 20.9302 22.4899C20.9302 24.4616 22.5285 26.0599 24.5002 26.0599Z" fill="currentColor"/>
<path d="M14.504 29.588L13.714 29.386C7.84598 27.904 4.47998 25.384 4.47998 22.482C4.47998 19.578 7.84798 17.06 13.714 15.578L14.504 15.378L14.726 16.16C15.3191 18.2074 16.0789 20.2027 16.998 22.126L17.168 22.482L16.998 22.838C16.078 24.764 15.316 26.76 14.726 28.808L14.504 29.588V29.588ZM13.35 17.398C8.89198 18.654 6.15398 20.57 6.15398 22.482C6.15398 24.39 8.88998 26.308 13.35 27.562C13.896 25.826 14.556 24.128 15.32 22.482C14.5504 20.8332 13.8923 19.1348 13.35 17.398V17.398ZM34.494 29.588L34.274 28.804C33.6793 26.7562 32.9188 24.7602 32 22.836L31.83 22.482L32 22.124C32.92 20.202 33.678 18.204 34.274 16.156L34.494 15.376L35.284 15.576C41.154 17.058 44.518 19.576 44.518 22.482C44.518 25.386 41.152 27.904 35.284 29.386L34.494 29.588V29.588ZM33.674 22.482C34.474 24.214 35.14 25.918 35.648 27.562C40.108 26.308 42.846 24.39 42.846 22.482C42.846 20.57 40.11 18.656 35.648 17.398C35.1025 19.1342 34.4431 20.8326 33.674 22.482V22.482Z" fill="currentColor"/>
<path d="M13.338 17.39L13.118 16.61C11.466 10.794 11.966 6.628 14.492 5.176C16.962 3.746 20.936 5.436 25.098 9.706L25.666 10.29L25.098 10.872C23.6198 12.4094 22.2687 14.0641 21.058 15.82L20.832 16.144L20.44 16.176C18.3112 16.3432 16.1996 16.6837 14.126 17.194L13.338 17.39V17.39ZM16.502 6.332C16.054 6.332 15.658 6.43 15.324 6.622C13.668 7.576 13.376 10.898 14.516 15.382C16.298 14.988 18.096 14.706 19.908 14.548C20.9571 13.0601 22.1015 11.6418 23.334 10.302C20.728 7.768 18.268 6.332 16.502 6.332V6.332ZM32.496 40.3C30.12 40.3 27.068 38.508 23.9 35.256L23.334 34.674L23.9 34.094C25.3785 32.5542 26.7303 30.8974 27.942 29.14L28.166 28.82L28.554 28.782C30.6836 28.6178 32.7961 28.2786 34.87 27.768L35.66 27.568L35.882 28.35C37.526 34.162 37.028 38.334 34.506 39.786C33.8937 40.1331 33.1998 40.3105 32.496 40.3V40.3ZM25.666 34.66C28.27 37.194 30.732 38.632 32.496 38.632C32.946 38.632 33.342 38.532 33.674 38.342C35.332 37.386 35.626 34.058 34.482 29.574C32.702 29.97 30.902 30.254 29.086 30.412C28.0415 31.9022 26.8989 33.3214 25.666 34.66V34.66Z" fill="currentColor"/>
<path d="M35.66 17.3901L34.87 17.1921C32.7962 16.6802 30.6837 16.3397 28.554 16.1741L28.166 16.1401L27.942 15.8161C26.7319 14.0593 25.3801 12.4045 23.9 10.8681L23.334 10.2861L23.9 9.70614C28.06 5.43814 32.032 3.74814 34.506 5.17614C37.03 6.63014 37.532 10.7961 35.882 16.6101L35.66 17.3901ZM29.086 14.5481C30.994 14.7181 32.802 15.0041 34.482 15.3821C35.624 10.8981 35.332 7.57614 33.674 6.62014C32.026 5.66614 28.924 7.12614 25.666 10.3021C26.898 11.6421 28.042 13.0581 29.086 14.5481ZM16.502 40.3001C15.7983 40.3102 15.1045 40.1328 14.492 39.7861C11.966 38.3341 11.466 34.1641 13.116 28.3501L13.332 27.5681L14.122 27.7681C16.05 28.2541 18.174 28.5961 20.438 28.7821L20.826 28.8201L21.052 29.1401C22.26 30.8961 23.612 32.5541 25.092 34.0941L25.66 34.6741L25.092 35.2561C21.926 38.5101 18.874 40.3001 16.502 40.3001V40.3001ZM14.516 29.5761C13.376 34.0601 13.668 37.3881 15.324 38.3441C16.974 39.2841 20.066 37.8341 23.334 34.6601C22.1019 33.3199 20.9575 31.9017 19.908 30.4141C18.0942 30.2537 16.293 29.9738 14.516 29.5761V29.5761Z" fill="currentColor"/>
<path d="M24.4998 30.6259C23.1258 30.6259 21.7158 30.5679 20.2998 30.4499L19.9078 30.4159L19.6818 30.0919C18.8833 28.9437 18.132 27.7634 17.4298 26.5539C16.7328 25.3412 16.0849 24.1008 15.4878 22.8359L15.3198 22.4819L15.4878 22.1239C16.0858 20.8599 16.7318 19.6199 17.4298 18.4079C18.1238 17.2159 18.8818 16.0239 19.6818 14.8679L19.9078 14.5479L20.2998 14.5119C23.0936 14.2779 25.902 14.2779 28.6958 14.5119L29.0838 14.5499L29.3098 14.8699C30.9094 17.1674 32.3143 19.5945 33.5098 22.1259L33.6758 22.4839L33.5098 22.8379C32.3176 25.371 30.9126 27.7984 29.3098 30.0939L29.0838 30.4179L28.6958 30.4519C27.2838 30.5659 25.8718 30.6259 24.4998 30.6259V30.6259ZM20.8318 28.8179C23.3018 29.0039 25.6978 29.0039 28.1658 28.8179C29.5436 26.8003 30.7684 24.6824 31.8298 22.4819C30.7721 20.2794 29.5472 18.1612 28.1658 16.1459C25.7248 15.9579 23.2729 15.9579 20.8318 16.1459C19.4493 18.1605 18.2243 20.2788 17.1678 22.4819C18.2316 24.6812 19.4562 26.799 20.8318 28.8179V28.8179Z" fill="currentColor"/>
</svg>
