<svg viewBox="0 0 49 48" fill="currentColor" xmlns="http://www.w3.org/2000/svg">
<path d="M31.5722 31.098C32.2489 31.0319 32.8738 30.7063 33.3157 30.1895C33.7576 29.6727 33.9821 29.0048 33.9422 28.326C33.911 27.6288 33.6136 26.9702 33.1113 26.4857C32.609 26.0013 31.94 25.7279 31.2422 25.722H31.1462C30.4303 25.7475 29.7538 26.0561 29.2652 26.5799C28.7766 27.1037 28.5159 27.8001 28.5402 28.516C28.5882 29.274 28.8982 29.89 29.3222 30.338C27.6682 33.556 25.1822 35.926 21.4142 37.914C18.8822 39.24 16.2062 39.738 13.6042 39.382C11.4262 39.076 9.72417 38.102 8.67817 36.54C7.11817 34.17 6.97417 31.616 8.27617 29.06C9.07026 27.5351 10.2049 26.2136 11.5922 25.198C11.3067 24.405 11.0853 23.5904 10.9302 22.762C3.91817 27.782 4.63417 34.646 6.76217 37.89C8.35017 40.258 11.5922 41.772 15.1422 41.772C16.0902 41.772 17.0862 41.702 18.0562 41.464C24.2102 40.28 28.8742 36.588 31.5502 31.144L31.5722 31.098V31.098Z" fill="currentColor"/>
<path d="M40.024 25.178C36.356 20.87 30.958 18.504 24.802 18.504H23.996C23.596 17.628 22.674 17.082 21.63 17.082H21.558C20.07 17.082 18.908 18.362 18.956 19.852C19.002 21.272 20.21 22.456 21.656 22.456H21.774C22.2859 22.4367 22.7813 22.2702 23.2009 21.9765C23.6205 21.6828 23.9466 21.2743 24.14 20.8H25.018C28.666 20.8 32.12 21.864 35.27 23.948C37.682 25.532 39.414 27.616 40.384 30.102C41.234 32.14 41.188 34.128 40.314 35.788C38.964 38.392 36.69 39.764 33.686 39.764C31.792 39.764 29.944 39.172 28.996 38.746C28.43 39.216 27.48 39.998 26.792 40.472C28.876 41.418 30.984 41.964 33.018 41.964C37.636 41.964 41.064 39.36 42.37 36.85C43.788 34.006 43.672 29.224 40.048 25.132L40.024 25.178V25.178Z" fill="currentColor"/>
<path d="M15.5439 31.95C15.5899 33.37 16.7959 34.554 18.2439 34.554H18.3399C18.6957 34.5459 19.0462 34.4666 19.371 34.3209C19.6957 34.1753 19.988 33.9661 20.2306 33.7057C20.4733 33.4454 20.6614 33.1391 20.7839 32.8049C20.9064 32.4708 20.9608 32.1155 20.9439 31.76C20.9439 30.34 19.7119 29.158 18.2679 29.158H18.1719C18.0759 29.158 17.9359 29.158 17.8159 29.202C15.8519 25.888 15.0219 22.334 15.3319 18.504C15.5199 15.614 16.4659 13.104 18.1719 11.02C19.5919 9.244 22.2679 8.368 24.0919 8.32C29.2039 8.224 31.3359 14.596 31.4999 17.128L33.8679 17.836C33.3219 10.072 28.4939 6 23.8759 6C19.5439 6 15.5439 9.148 13.9339 13.768C11.7299 19.922 13.1759 25.84 15.8759 30.576C15.6399 30.884 15.4979 31.428 15.5439 31.95V31.95Z" fill="currentColor"/>
</svg>
