<svg viewBox="0 0 49 48" fill="currentColor" xmlns="http://www.w3.org/2000/svg">
<path d="M37.25 19.0199C35.7501 18.5033 34.4262 17.5745 33.43 16.3399C32.3321 14.9644 30.9341 13.8582 29.343 13.106C27.7519 12.3537 26.0098 11.9754 24.25 11.9999C21.8827 11.8323 19.5392 12.5624 17.686 14.0449C15.8329 15.5275 14.6061 17.6536 14.25 19.9999C14.9513 18.8264 16.0069 17.9057 17.2648 17.3702C18.5227 16.8347 19.918 16.712 21.25 17.0199C22.7474 17.5515 24.0692 18.4858 25.07 19.7199C26.1739 21.0845 27.5746 22.1792 29.1653 22.9209C30.7561 23.6626 32.4951 24.0316 34.25 23.9999C36.6173 24.1676 38.9608 23.4374 40.814 21.9549C42.6671 20.4724 43.8939 18.3462 44.25 15.9999C43.5614 17.1875 42.5092 18.1221 41.2487 18.6659C39.9883 19.2097 38.5864 19.3338 37.25 19.0199ZM11.25 28.9799C12.7499 29.4965 14.0738 30.4253 15.07 31.6599C16.1679 33.0355 17.5659 34.1416 19.157 34.8939C20.7481 35.6461 22.4902 36.0244 24.25 35.9999C26.6173 36.1676 28.9608 35.4374 30.814 33.9549C32.6671 32.4724 33.8939 30.3463 34.25 27.9999C33.5487 29.1734 32.4931 30.0942 31.2352 30.6297C29.9773 31.1652 28.582 31.2878 27.25 30.9799C25.7526 30.4483 24.4308 29.5141 23.43 28.2799C22.3231 26.9188 20.9219 25.8264 19.3318 25.085C17.7417 24.3437 16.0042 23.9727 14.25 23.9999C11.8827 23.8323 9.53917 24.5624 7.68601 26.0449C5.83286 27.5275 4.60608 29.6536 4.25 31.9999C4.93861 30.8124 5.99082 29.8777 7.25127 29.3339C8.51172 28.7901 9.91362 28.666 11.25 28.9799Z" fill="currentColor"/>
</svg>
