<svg viewBox="0 0 422 622" fill="transparent" xmlns="http://www.w3.org/2000/svg">
<path d="M355.63 185.362C355.63 279.896 279.082 356.531 184.654 356.531M355.63 185.362C355.63 90.8285 279.082 14.1937 184.654 14.1937C90.2268 14.1937 13.6782 90.8285 13.6782 185.362C13.6782 279.896 90.2268 356.531 184.654 356.531M355.63 185.362V304.496M355.63 185.362V59.0886M184.654 356.531H355.63M184.654 356.531H49.3306M355.63 356.531C355.63 356.531 355.63 416.171 355.63 436.638C355.63 531.172 279.082 607.807 184.654 607.807C90.2268 607.807 13.6782 531.172 13.6782 436.638H82.0686C82.0686 493.358 127.998 539.339 184.654 539.339C241.311 539.339 287.24 493.358 287.24 436.638L321.435 396.585L355.63 356.531ZM355.63 356.531H405.783M287.24 185.362C287.24 242.083 241.311 288.064 184.654 288.064C127.998 288.064 82.0686 242.083 82.0686 185.362C82.0686 128.642 127.998 82.6612 184.654 82.6612C241.311 82.6612 287.24 128.642 287.24 185.362Z" stroke="currentColor" stroke-width="10"/>
<rect x="341.952" y="290.444" width="27.3562" height="27.387" fill="currentColor"/>
<rect x="272.878" y="422.944" width="27.3562" height="27.387" fill="currentColor"/>
<rect x="171.66" y="524.961" width="27.3562" height="27.387" fill="currentColor"/>
<rect x="67.7061" y="422.944" width="27.3562" height="27.387" fill="currentColor"/>
<rect y="422.944" width="27.3562" height="27.387" fill="currentColor"/>
<rect x="341.952" y="422.944" width="27.3562" height="27.387" fill="currentColor"/>
<rect x="341.952" y="342.837" width="27.3562" height="27.387" fill="currentColor"/>
<rect x="170.976" y="341.423" width="27.3562" height="27.387" fill="currentColor"/>
<rect x="170.976" y="274.37" width="27.3562" height="27.387" fill="currentColor"/>
<rect x="170.976" y="68.9675" width="27.3562" height="27.387" fill="currentColor"/>
<rect x="170.976" y="0.499969" width="27.3562" height="27.387" fill="currentColor"/>
<rect x="68.3906" y="170.984" width="27.3562" height="27.387" fill="currentColor"/>
<rect y="170.984" width="27.3562" height="27.387" fill="currentColor"/>
<rect x="38.1914" y="341.423" width="27.3562" height="27.387" fill="currentColor"/>
<rect x="394.644" y="341.423" width="27.3562" height="27.387" fill="currentColor"/>
<rect x="341.952" y="170.984" width="27.3562" height="27.387" fill="currentColor"/>
<rect x="273.562" y="170.984" width="27.3562" height="27.387" fill="currentColor"/>
<rect x="171.66" y="594.113" width="27.3562" height="27.387" fill="currentColor"/>
<rect x="341.952" y="48.293" width="27.3562" height="27.387" fill="currentColor"/>
</svg>
